<svg preserveAspectRatio="none" overflow="visible" style="display: block;" width="24" height="24" viewBox="0 0 24 24" fill="none" xmlns="http://www.w3.org/2000/svg">
<g id="Identity-07 1">
<path id="Vector" d="M23.2486 10.9218C23.2486 9.94289 22.8134 9.0248 22.0553 8.40437L14.2238 1.99625C13.5901 1.47768 12.799 1.19193 11.9947 1.19193C11.1904 1.19193 10.4363 1.46312 9.80928 1.97641L1.92085 8.4295C1.17473 9.03936 0.74876 9.96538 0.750083 10.9721L0.75802 18.7521C0.760666 20.9878 2.65505 22.8067 4.98203 22.8067H4.98468L19.0907 22.8001C20.1914 22.8001 21.2325 22.3715 22.0223 21.5963C22.8134 20.8198 23.2486 19.7919 23.2486 18.7044V10.9218ZM22.4099 18.6264C22.4059 20.4441 20.9441 21.9244 19.1516 21.9257L4.93176 21.935C3.10219 21.935 1.61261 20.4626 1.61261 18.6542V11.025C1.60997 10.2749 1.94334 9.58836 2.54658 9.08963L10.3437 2.64976C10.816 2.25951 11.3849 2.05314 11.9907 2.05314C12.5966 2.05314 13.2052 2.27274 13.6893 2.67093L21.4719 9.07243C22.0712 9.56587 22.4284 10.2763 22.4271 10.9721L22.4086 18.6277L22.4099 18.6264Z" fill="white"/>
<path id="Vector_2" d="M17.4741 9.61217C17.4107 9.61217 17.3405 9.63863 17.2717 9.68758L12.004 13.3732L6.76397 9.70345C6.68063 9.64524 6.59861 9.61482 6.52453 9.61482C6.42399 9.61482 6.33535 9.67435 6.25995 9.78944C6.1475 9.96538 6.09591 10.2974 6.29567 10.4363L11.8307 14.3111C11.8876 14.3508 11.9497 14.3587 11.9921 14.3587C12.0661 14.3587 12.1429 14.3336 12.205 14.2913L17.6805 10.4588C17.7625 10.4006 17.8141 10.3186 17.8327 10.2128C17.8578 10.0672 17.8168 9.89527 17.7242 9.76166C17.6699 9.69287 17.584 9.61349 17.4755 9.61349L17.4741 9.61217Z" fill="white"/>
</g>
</svg>
