<svg preserveAspectRatio="none" overflow="visible" style="display: block;" width="182" height="86" viewBox="0 0 182 86" fill="none" xmlns="http://www.w3.org/2000/svg">
<g id="Jamuh Approved Logo 1">
<g id="Group">
<path id="Vector" d="M73.1874 77.5477V74.8754C71.8334 75.9245 70.4993 76.7123 69.1892 77.2389C67.879 77.7654 66.533 78.0267 65.1469 78.0267C63.9087 78.0267 62.8223 77.8446 61.8796 77.4804C60.9369 77.1161 60.1501 76.6134 59.515 75.972C58.8799 75.3307 58.3966 74.5705 58.0571 73.6956C57.7176 72.8207 57.5498 71.8864 57.5498 70.8927C57.5498 69.317 57.8573 68.0185 58.4765 66.9971C59.0956 65.9757 59.9623 65.1443 61.0807 64.503C62.1991 63.8616 63.5253 63.3707 65.0551 63.0382C66.5849 62.7017 68.2785 62.4324 70.1358 62.2266L72.8759 61.9217V60.738C72.8759 59.4237 72.4645 58.4379 71.6377 57.7847C70.8148 57.1275 69.7364 56.7989 68.4143 56.7989C67.0922 56.7989 65.83 57.076 64.6397 57.6303C63.4454 58.1845 62.275 58.9723 61.1287 59.9937L58.2128 56.4465C59.8625 55.0451 61.584 54.0316 63.3815 53.4021C65.1789 52.7766 67.0043 52.4599 68.8576 52.4599C70.5632 52.4599 72.0611 52.6737 73.3392 53.0933C74.6214 53.5169 75.6879 54.1068 76.5427 54.8669C77.3974 55.627 78.0285 56.5297 78.4399 57.5827C78.8514 58.6319 79.0591 59.7998 79.0591 61.0864V77.5477H73.1835H73.1874ZM72.8799 65.6392L71.1144 65.9005C68.4063 66.2489 66.497 66.7833 65.3946 67.4999C64.2922 68.2165 63.737 69.2458 63.737 70.5879C63.737 71.5222 64.0525 72.2744 64.6876 72.8445C65.3187 73.4145 66.1215 73.6996 67.0961 73.6996C68.0708 73.6996 69.0254 73.4818 69.968 73.0424C70.9107 72.603 71.8813 71.9774 72.8839 71.1579V65.6431L72.8799 65.6392Z" fill="#C5A760"/>
<path id="Vector_2" d="M113.382 77.5477V61.3952C113.382 59.9066 113.122 58.9169 112.607 58.4181C112.092 57.9232 111.421 57.6738 110.598 57.6738C110.099 57.6738 109.587 57.753 109.076 57.9153C108.561 58.0776 108.066 58.2795 107.598 58.5289C107.127 58.7783 106.692 59.0555 106.296 59.3603C105.901 59.6651 105.553 59.966 105.258 60.259V77.5516H99.1184V62.187C99.1184 60.6984 98.9267 59.5741 98.5432 58.8179C98.1598 58.0578 97.4089 57.6778 96.2904 57.6778C95.4676 57.6778 94.5769 57.9113 93.6183 58.3785C92.6596 58.8457 91.7689 59.4593 90.9461 60.2154V77.5516H84.8069V52.9468H90.6385V55.7498C91.1698 55.3103 91.7409 54.8946 92.3601 54.5027C92.9792 54.1108 93.6183 53.7584 94.2813 53.4536C94.9444 53.1487 95.6274 52.9072 96.3344 52.733C97.0414 52.5589 97.7324 52.4718 98.4114 52.4718C100.061 52.4718 101.371 52.8083 102.342 53.4773C103.312 54.1503 104.047 55.0253 104.551 56.1061C105.082 55.6389 105.653 55.1876 106.272 54.7481C106.891 54.3087 107.546 53.9247 108.237 53.5882C108.928 53.2517 109.651 52.9825 110.402 52.7766C111.153 52.5747 111.912 52.4718 112.679 52.4718C114.916 52.4718 116.617 53.1448 117.78 54.4869C118.942 55.8289 119.525 57.6382 119.525 59.9146V77.5556H113.386L113.382 77.5477Z" fill="#C5A760"/>
<path id="Vector_3" d="M140.767 77.5477V74.7447C139.649 75.592 138.398 76.3521 137.012 77.0211C135.626 77.6942 134.124 78.0267 132.507 78.0267C130.062 78.0267 128.209 77.3497 126.943 75.9918C125.676 74.6339 125.045 72.8326 125.045 70.5839V52.9429H131.229V68.4857C131.229 69.9742 131.5 71.0669 132.047 71.7676C132.591 72.4684 133.437 72.8167 134.588 72.8167C135.53 72.8167 136.545 72.5555 137.635 72.0289C138.726 71.5024 139.68 70.9204 140.507 70.2791V52.9429H146.647V77.5477H140.771H140.767Z" fill="#C5A760"/>
<path id="Vector_4" d="M167.976 77.5477V62.3137C167.976 60.8251 167.748 59.681 167.293 58.8773C166.838 58.0737 165.947 57.6738 164.621 57.6738C163.678 57.6738 162.676 57.9311 161.617 58.4418C160.559 58.9525 159.584 59.5424 158.701 60.2154V77.5516H152.562V44.4549H158.701V55.532C159.792 54.7719 160.99 54.0712 162.3 53.4298C163.61 52.7885 165.076 52.4678 166.694 52.4678C169.138 52.4678 170.984 53.1448 172.238 54.5027C173.488 55.8606 174.115 57.6619 174.115 59.9106V77.5516H167.976V77.5477Z" fill="#C5A760"/>
</g>
<path id="Vector_5" d="M46.5655 41.7985C48.4508 41.1927 50.5678 40.6345 52.9404 40.1555C52.9284 45.5238 52.9044 50.9238 52.8924 56.2486C52.8844 56.9454 52.8884 59.0634 52.8805 59.7602C52.9284 63.8141 51.8619 67.8879 49.7689 71.3757C44.117 81.0157 31.467 85.0182 21.2656 80.2833C13.8163 76.9697 8.6077 69.3843 8.34408 61.2923C8.32011 60.5995 8.3281 59.5147 8.34408 58.81C8.35207 57.6936 8.39601 55.8012 8.40799 54.7125C8.40799 54.6254 8.41198 54.475 8.41598 54.3641H61.3284C61.3284 54.3641 61.1247 59.4157 61.1327 59.9858L13.6325 59.9779C13.6126 66.3795 17.6987 72.5436 23.6382 75.0298C34.3709 79.6697 46.5295 71.926 46.6214 60.3025C46.6134 59.9858 46.6214 58.9209 46.6214 58.5844C46.6054 53.026 46.5854 47.4043 46.5695 41.7945L46.5655 41.7985Z" fill="#C5A760"/>
<path id="Vector_6" d="M52.9484 28.1599V32.8394V33.7143C52.9484 34.4744 52.9484 35.2425 52.9484 36.0065C50.6237 36.446 48.4987 36.9646 46.5615 37.5347C46.5615 36.8894 46.5615 36.2441 46.5615 35.5988C46.5615 35.4364 46.5615 35.2741 46.5615 35.1118C46.5615 34.0864 46.5615 33.065 46.5615 32.0436V31.9961C46.5615 31.1172 46.5615 30.2423 46.5615 29.3674V25.8558C46.5535 25.4599 46.5335 25.064 46.5016 24.6681C46.2539 21.8177 45.2314 19.0425 43.5418 16.7107C41.2531 13.5198 37.7501 11.2038 33.8876 10.3645C32.7652 10.1111 31.6108 9.98444 30.4565 9.97256H29.8813L14.0559 9.91318C14.016 18.1596 13.9321 30.9114 13.8802 38.3067L16.7121 41.5847L19.3284 39.8111C19.2845 36.4539 19.6679 32.7127 21.5013 29.89C22.7914 28.1322 24.3093 26.6199 24.7846 24.5058C25.5275 21.6593 25.1281 16.196 25.192 13.1278L29.5538 17.5262L29.6936 17.6687C33.568 21.7464 35.7969 27.9105 33.9355 33.3303C33.7758 33.8014 33.584 34.2646 33.3564 34.7238C32.873 35.7571 32.2539 36.6875 31.5589 37.5743C30.5883 38.8728 29.6097 40.2545 28.7949 41.6084C28.4553 42.1627 28.2277 42.6853 27.984 43.2672C27.2211 45.116 26.6899 47.0045 26.3144 48.9998H26.2745C26.0228 47.6577 25.9469 46.2721 26.0068 44.8825C26.0668 43.7819 26.1626 42.6338 26.4622 41.557C26.5461 41.2561 26.6459 40.9592 26.7618 40.6702C27.4807 38.7263 28.5312 36.9765 29.426 35.1277C30.7281 32.3326 30.6522 29.3436 29.6057 26.612C29.3501 27.4631 29.0106 28.2906 28.5672 29.0784C27.7723 30.4997 26.9495 31.4894 26.0628 32.6652C24.7127 34.704 24.7207 38.5323 24.8964 40.979L25.0243 42.5586L23.7221 43.477C22.2762 44.4945 17.1435 48.113 15.7775 49.075C14.6391 47.7962 10.0257 42.61 8.80342 41.2402L8.10442 40.4524L8.09643 39.3637C8.04051 29.795 7.92068 13.3693 7.88474 3.81642L10.9803 3.80454L29.8733 3.73724H30.4805C32.0822 3.73724 33.6799 3.90747 35.2496 4.24794C43.7535 6.00175 50.7315 13.0407 52.477 21.4337C52.5889 21.9761 52.6807 22.5224 52.7486 23.0727C52.8725 23.8684 52.9244 24.8265 52.9404 25.7766C52.9563 26.6159 52.9484 27.4513 52.9484 28.1678V28.1599Z" fill="#C5A760"/>
<path id="Vector_7" d="M46.5575 37.5386V46.0504L52.9484 43.5602V31.5329L46.5575 37.5386Z" fill="#C5A760"/>
</g>
</svg>
